# xmcd
# Copyright (C) 1995-1998 Ti Kan
#
# Track frame offsets:
#       150
#       18217
#       33386
#       52221
#       68425
#       85254
#       104051
#       120809
#       140085
#       153479
#       166822
#       180613
#
# Disc length: 2610 seconds
#
# Revision: 2
# Processed by: cddbd v1.5.1PL2 Copyright (c) Steve Scherf et al.
# Submitted via: CD-Transfer v1.0
#
DISCID=980a300c
DTITLE=Chuelee - Aues Geili Sieche
DYEAR=2006
DGENRE=
TTITLE0=I Dänke A Dich
TTITLE1=Schutzängu
TTITLE2=Bi Für Di Da
TTITLE3=Krankenschwester
TTITLE4=Näbumeer
TTITLE5=Sie Lacht
TTITLE6=Tschüss Per Sms
TTITLE7=Mi Sonne
TTITLE8=Mi Wäg Isch Frei
TTITLE9=Det Wo I Däheima Bi
TTITLE10=Aues Geili Sieche
TTITLE11=Fies
EXTD=
EXTT0=
EXTT1=
EXTT2=
EXTT3=
EXTT4=
EXTT5=
EXTT6=
EXTT7=
EXTT8=
EXTT9=
EXTT10=
EXTT11=
PLAYORDER=
